<?xml version="1.0" encoding="UTF-8" standalone="no" ?>
<!DOCTYPE svg PUBLIC "-//W3C//DTD SVG 1.1//EN" "http://www.w3.org/Graphics/SVG/1.1/DTD/svg11.dtd">
<svg xmlns="http://www.w3.org/2000/svg" xmlns:xlink="http://www.w3.org/1999/xlink" version="1.1" width="1080" height="1080" viewBox="0 0 1080 1080" xml:space="preserve">
<desc>Created with Fabric.js 5.2.4</desc>
<defs>
</defs>
<g transform="matrix(1 0 0 1 540 540)" id="ac9f5645-3ef3-4ff4-b651-5b8dc538185d"  >
<rect style="stroke: white; stroke-width: 3; stroke-dasharray: none; stroke-linecap: butt; stroke-dashoffset: 0; stroke-linejoin: miter; stroke-miterlimit: 4; fill: rgb(255,255,255); fill-rule: nonzero; opacity: 1; visibility: hidden;" vector-effect="non-scaling-stroke"  x="-540" y="-540" rx="0" ry="0" width="1080" height="1080" />
</g>
<g transform="matrix(0 0 0 0 0 0)" id="b7021a1e-a960-43db-b07f-07c02e617d01"  >
</g>
<g transform="matrix(10.8 0 0 10.8 180.57 180.62)"  >
<path style="stroke: white; stroke-width: 3; stroke-dasharray: none; stroke-linecap: butt; stroke-dashoffset: 0; stroke-linejoin: miter; stroke-miterlimit: 4; fill: rgb(255,255,255); fill-rule: nonzero; opacity: 1;" vector-effect="non-scaling-stroke"  transform=" translate(-16.72, -16.73)" d="M 8.03 27.45 C 9.149999999999999 27.45 10.059999999999999 26.54 10.059999999999999 25.419999999999998 L 10.059999999999999 10.06 L 25.409999999999997 10.06 C 26.529999999999998 10.06 27.439999999999998 9.15 27.439999999999998 8.030000000000001 C 27.439999999999998 6.910000000000002 26.529999999999998 6.000000000000002 25.409999999999997 6.000000000000002 L 8.03 6.000000000000002 C 6.909999999999999 6.000000000000002 6 6.910000000000002 6 8.030000000000001 L 6 25.42 C 6 26.540000000000003 6.91 27.450000000000003 8.03 27.450000000000003 Z" stroke-linecap="round" />
</g>
<g transform="matrix(10.8 0 0 10.8 899.44 180.57)"  >
<path style="stroke: white; stroke-width: 3; stroke-dasharray: none; stroke-linecap: butt; stroke-dashoffset: 0; stroke-linejoin: miter; stroke-miterlimit: 4; fill: rgb(255,255,255); fill-rule: nonzero; opacity: 1;" vector-effect="non-scaling-stroke"  transform=" translate(-83.28, -16.72)" d="M 91.97 6 L 74.59 6 C 73.47 6 72.56 6.91 72.56 8.03 C 72.56 9.149999999999999 73.47 10.059999999999999 74.59 10.059999999999999 L 89.94 10.059999999999999 L 89.94 25.409999999999997 C 89.94 26.529999999999998 90.85 27.439999999999998 91.97 27.439999999999998 C 93.09 27.439999999999998 94 26.529999999999998 94 25.409999999999997 L 94 8.03 C 94 6.909999999999999 93.09 6 91.97 6 Z" stroke-linecap="round" />
</g>
<g transform="matrix(10.8 0 0 10.8 180.62 899.44)"  >
<path style="stroke: white; stroke-width: 3; stroke-dasharray: none; stroke-linecap: butt; stroke-dashoffset: 0; stroke-linejoin: miter; stroke-miterlimit: 4; fill: rgb(255,255,255); fill-rule: nonzero; opacity: 1;" vector-effect="non-scaling-stroke"  transform=" translate(-16.73, -83.28)" d="M 25.42 89.94 L 10.06 89.94 L 10.06 74.59 C 10.06 73.47 9.15 72.56 8.030000000000001 72.56 C 6.910000000000002 72.56 6.000000000000002 73.47 6.000000000000002 74.59 L 6.000000000000002 91.97 C 6.000000000000002 93.09 6.910000000000002 94 8.030000000000001 94 L 25.42 94 C 26.540000000000003 94 27.450000000000003 93.09 27.450000000000003 91.97 C 27.450000000000003 90.85 26.540000000000003 89.94 25.42 89.94 Z" stroke-linecap="round" />
</g>
<g transform="matrix(10.8 0 0 10.8 899.44 899.44)"  >
<path style="stroke: white; stroke-width: 3; stroke-dasharray: none; stroke-linecap: butt; stroke-dashoffset: 0; stroke-linejoin: miter; stroke-miterlimit: 4; fill: rgb(255,255,255); fill-rule: nonzero; opacity: 1;" vector-effect="non-scaling-stroke"  transform=" translate(-83.28, -83.27)" d="M 91.97 72.55 C 90.85 72.55 89.94 73.46 89.94 74.58 L 89.94 89.92999999999999 L 74.59 89.92999999999999 C 73.47 89.92999999999999 72.56 90.83999999999999 72.56 91.96 C 72.56 93.08 73.47 93.99 74.59 93.99 L 91.97 93.99 C 93.09 93.99 94 93.08 94 91.96 L 94 74.58 C 94 73.46 93.09 72.55 91.97 72.55 Z" stroke-linecap="round" />
</g>
<g transform="matrix(10.8 0 0 10.8 624.07 365.48)"  >
<path style="stroke: white; stroke-width: 3; stroke-dasharray: none; stroke-linecap: butt; stroke-dashoffset: 0; stroke-linejoin: miter; stroke-miterlimit: 4; fill: rgb(255,255,255); fill-rule: nonzero; opacity: 1;" vector-effect="non-scaling-stroke"  transform=" translate(-57.77, -33.82)" d="M 36.89 35.85 L 78.65 35.85 C 79.77000000000001 35.85 80.68 34.940000000000005 80.68 33.82 C 80.68 32.699999999999996 79.77000000000001 31.79 78.65 31.79 L 36.89 31.79 C 35.77 31.79 34.86 32.699999999999996 34.86 33.82 C 34.86 34.940000000000005 35.769999999999996 35.85 36.89 35.85 Z" stroke-linecap="round" />
</g>
<g transform="matrix(10.8 0 0 10.8 539.85 540.31)"  >
<path style="stroke: white; stroke-width: 3; stroke-dasharray: none; stroke-linecap: butt; stroke-dashoffset: 0; stroke-linejoin: miter; stroke-miterlimit: 4; fill: rgb(255,255,255); fill-rule: nonzero; opacity: 1;" vector-effect="non-scaling-stroke"  transform=" translate(-50, -50)" d="M 78.65 47.97 L 21.35 47.97 C 20.23 47.97 19.32 48.879999999999995 19.32 50 C 19.32 51.120000000000005 20.23 52.03 21.35 52.03 L 78.64 52.03 C 79.76 52.03 80.67 51.120000000000005 80.67 50 C 80.67 48.879999999999995 79.76 47.97 78.64 47.97 Z" stroke-linecap="round" />
</g>
<g transform="matrix(10.8 0 0 10.8 539.85 714.46)"  >
<path style="stroke: white; stroke-width: 3; stroke-dasharray: none; stroke-linecap: butt; stroke-dashoffset: 0; stroke-linejoin: miter; stroke-miterlimit: 4; fill: rgb(255,255,255); fill-rule: nonzero; opacity: 1;" vector-effect="non-scaling-stroke"  transform=" translate(-50, -66.18)" d="M 78.65 64.15 L 21.35 64.15 C 20.23 64.15 19.32 65.06 19.32 66.18 C 19.32 67.30000000000001 20.23 68.21000000000001 21.35 68.21000000000001 L 78.64 68.21000000000001 C 79.76 68.21000000000001 80.67 67.30000000000001 80.67 66.18 C 80.67 65.06 79.76 64.15 78.64 64.15 Z" stroke-linecap="round" />
</g>
</svg>
