<svg width="14" height="17" viewBox="0 0 14 17" fill="none" xmlns="http://www.w3.org/2000/svg">
<path d="M6.85846e-07 3.4L3.73333 -4.4877e-07L5.08667 1.19L3.59333 2.55L10.2667 2.55C11.2933 2.55 12.1722 2.88292 12.9033 3.54875C13.6344 4.21458 14 5.015 14 5.95C14 6.885 13.6344 7.68542 12.9033 8.35125C12.1722 9.01708 11.2933 9.35 10.2667 9.35L3.73333 9.35C3.22 9.35 2.7804 9.5166 2.41453 9.8498C2.04867 10.183 1.86604 10.5831 1.86667 11.05C1.86667 11.5175 2.04929 11.9178 2.41453 12.251C2.77978 12.5842 3.21938 12.7506 3.73333 12.75L10.4067 12.75L8.91333 11.39L10.2667 10.2L14 13.6L10.2667 17L8.91333 15.81L10.4067 14.45L3.73333 14.45C2.70667 14.45 1.82778 14.1171 1.09667 13.4513C0.365555 12.7854 3.10584e-07 11.985 3.51454e-07 11.05C3.92324e-07 10.115 0.365555 9.31458 1.09667 8.64875C1.82778 7.98292 2.70667 7.65 3.73333 7.65L10.2667 7.65C10.78 7.65 11.2193 7.48368 11.5845 7.15105C11.9498 6.81842 12.1327 6.41807 12.1333 5.95C12.1333 5.4825 11.9504 5.08243 11.5845 4.7498C11.2187 4.41717 10.7794 4.25057 10.2667 4.25L3.59333 4.25L5.08667 5.61L3.73333 6.8L6.85846e-07 3.4Z" fill="white"/>
</svg>
